# xmcd
#
# Track frame offsets:
#	150
#	23134
#	41655
#	54257
#	76989
#	94330
#	108163
#	129347
#	147638
#	163077
#
# Disc length: 2466 seconds
#
# Revision: 2
# Processed by: cddbd v1.5.2PL0 Copyright (c) Steve Scherf et al.
# Submitted via: audiograbber 1.83.01
#
DISCID=7f09a00a
DTITLE=Enraged - Presence of Fear
DYEAR=2003
DGENRE=Thrash Metal
TTITLE0=Fits of Rage
TTITLE1=Waiting to Fall
TTITLE2=Circle of Hell
TTITLE3=Bury the Priest
TTITLE4=Funny Farm
TTITLE5=Serial Killer
TTITLE6=731
TTITLE7=Nothing There
TTITLE8=Dead Friend
TTITLE9=Worth
EXTD=
EXTT0=
EXTT1=
EXTT2=
EXTT3=
EXTT4=
EXTT5=
EXTT6=
EXTT7=
EXTT8=
EXTT9=
PLAYORDER=
